#!OML:ASF I:\Actors\actors\Patient Classification 2\Patient 1\Session 1\actor1.ASF
:FULLY-SPECIFIED
:DEGREES
666
root -0.659685 18.5593 4.56921 -7.18674 -0.899129 -3.20988
lowerback 20.8334 -0.268787 1.38281
upperback 4.59287 0.12539 2.35746
thorax -6.64999 0.049503 1.72235
lowerneck 4.69019 -6.57414 -8.22782
upperneck 44.5936 -9.67138 0.942234
head 15.6847 -5.41551 0.834661
rclavicle -5.2181e-015 2.78299e-015
rhumerus -61.7894 4.76633 -75.7957
rradius 116.804
rwrist 3.41315
rhand 15.3412 -51.7355
rfingers 7.12502
rthumb 40.1727 -76.9093
lclavicle -5.2181e-015 2.78299e-015
lhumerus -58.8359 -10.4932 87.8663
lradius 110.351
lwrist 5.26903
lhand -6.86944 -23.673
lfingers 7.12502
lthumb 18.9964 5.41935
rfemur 12.8206 9.28882 18.7273
rtibia -1.90833e-014
rfoot -18.6284 -17.2642
rtoes -12.6024
lfemur -2.45088 -1.02238 -10.7131
ltibia 26.0738
lfoot -18.8688 8.58614
ltoes -56.2889
667
root -0.664144 18.5584 4.56307 -7.19064 -0.956936 -3.21345
lowerback 21.1243 -0.273984 1.51646
upperback 4.45366 0.156738 2.31413
thorax -6.95471 0.0621066 1.59551
lowerneck 4.88109 -6.51017 -8.15098
upperneck 44.6024 -9.64731 1.07036
head 15.6492 -5.38346 0.888564
rclavicle -4.96962e-015 -8.34896e-015
rhumerus -62.1134 4.73196 -75.9209
rradius 116.828
rwrist 3.53137
rhand 15.1438 -51.4418
rfingers 7.12502
rthumb 39.987 -76.6718
lclavicle -4.96962e-015 -8.34896e-015
lhumerus -59.0346 -10.6128 87.918
lradius 110.368
lwrist 5.10039
lhand -6.76657 -23.7
lfingers 7.12502
lthumb 19.0953 5.38263
rfemur 12.7997 9.34372 18.7553
rtibia 6.36111e-015
rfoot -18.5891 -17.2736
rtoes -12.6769
lfemur -2.45616 -0.928177 -10.6713
ltibia 26.0669
lfoot -18.845 8.52899
ltoes -56.293
668
root -0.670611 18.5587 4.55604 -7.14718 -0.954612 -3.201
lowerback 21.2535 -0.294873 1.51343
upperback 4.38008 0.135558 2.32133
thorax -7.10261 0.0519133 1.61294
lowerneck 4.99358 -6.42668 -8.26501
upperneck 44.595 -9.62136 1.32548
head 15.6469 -5.36607 1.02614
rclavicle 7.10655e-015 1.47101e-014
rhumerus -62.2542 4.81251 -76.0052
rradius 116.817
rwrist 3.59835
rhand 15.1229 -51.5196
rfingers 7.12502
rthumb 39.9674 -76.7555
lclavicle 7.10655e-015 1.47101e-014
lhumerus -59.077 -10.5904 87.9934
lradius 110.329
lwrist 4.98048
lhand -6.64368 -23.709
lfingers 7.12502
lthumb 19.2135 5.36193
rfemur 12.7318 9.33956 18.7548
rtibia 5.56597e-015
rfoot -18.5751 -17.2816
rtoes -12.6262
lfemur -2.52843 -0.911256 -10.6604
ltibia 26.0606
lfoot -18.8063 8.53096
ltoes -56.2875
669
root -0.676785 18.5597 4.54891 -7.07788 -0.947884 -3.17825
lowerback 21.2346 -0.305353 1.45009
upperback 4.38007 0.108668 2.33694
thorax -7.09237 0.0402362 1.67306
lowerneck 5.02272 -6.38156 -8.20474
upperneck 44.523 -9.58223 1.38571
head 15.596 -5.33392 1.04941
rclavicle -1.18277e-014 1.35174e-014
rhumerus -62.2714 4.88707 -76.0778
rradius 116.795
rwrist 3.60608
rhand 15.1491 -51.7239
rfingers 7.12502
rthumb 39.992 -76.9523
lclavicle -1.18277e-014 1.35174e-014
lhumerus -59.0638 -10.5775 88.0634
lradius 110.32
lwrist 4.951
lhand -6.61853 -23.7189
lfingers 7.12502
lthumb 19.2377 5.3496
rfemur 12.6295 9.33241 18.7359
rtibia -1.98785e-014
rfoot -18.5469 -17.3093
rtoes -12.6676
lfemur -2.63094 -0.92265 -10.6683
ltibia 26.0553
lfoot -18.7577 8.57003
ltoes -56.2868
670
root -0.681966 18.5606 4.54324 -7.02225 -0.965354 -3.1595
lowerback 21.2186 -0.292785 1.44779
upperback 4.39083 0.121866 2.31426
thorax -7.07242 0.0464662 1.64593
lowerneck 5.03678 -6.38755 -7.98796
upperneck 44.4483 -9.5851 1.33177
head 15.529 -5.30632 0.991569
rclavicle -8.99501e-015 -4.77083e-015
rhumerus -62.3217 4.816 -76.1793
rradius 116.801
rwrist 3.61319
rhand 15.0777 -51.6786
rfingers 7.12502
rthumb 39.9247 -76.9273
lclavicle -8.99501e-015 -4.77083e-015
lhumerus -59.0746 -10.6758 88.1065
lradius 110.346
lwrist 4.95956
lhand -6.61744 -23.7132
lfingers 7.12502
lthumb 19.2387 5.35522
rfemur 12.5409 9.34912 18.7257
rtibia -4.92986e-014
rfoot -18.5124 -17.3483
rtoes -12.8176
lfemur -2.70478 -0.966534 -10.6763
ltibia 26.0487
lfoot -18.7401 8.61179
ltoes -56.1993
671
root -0.686132 18.5613 4.53839 -6.98928 -0.990049 -3.17852
lowerback 21.2309 -0.283984 1.52973
upperback 4.42517 0.147701 2.27901
thorax -7.04157 0.0571283 1.55371
lowerneck 4.9993 -6.38741 -7.82015
upperneck 44.4201 -9.61225 1.3824
head 15.5123 -5.28488 0.981094
rclavicle -1.12313e-014 7.95139e-016
rhumerus -62.3493 4.66043 -76.2607
rradius 116.803
rwrist 3.66374
rhand 15.0339 -51.4455
rfingers 7.12502
rthumb 39.8836 -76.7066
lclavicle -1.12313e-014 7.95139e-016
lhumerus -58.9892 -10.7807 88.1348
lradius 110.325
lwrist 4.95571
lhand -6.56671 -23.7111
lfingers 7.12502
lthumb 19.2875 5.35242
rfemur 12.4826 9.36866 18.7585
rtibia 1.59028e-015
rfoot -18.4989 -17.363
rtoes -12.7565
lfemur -2.74717 -0.978398 -10.6383
ltibia 26.0404
lfoot -18.7176 8.62566
ltoes -56.1478
672
root -0.688821 18.5623 4.5353 -6.97198 -1.04666 -3.19797
lowerback 21.2485 -0.252554 1.68088
upperback 4.48071 0.21356 2.19312
thorax -6.99035 0.0856146 1.35624
lowerneck 4.95872 -6.42222 -7.62549
upperneck 44.3949 -9.71591 1.49622
head 15.5061 -5.28505 0.984047
rclavicle -3.97569e-016 -2.10712e-014
rhumerus -62.3732 4.40137 -76.348
rradius 116.766
rwrist 3.78849
rhand 15.0933 -51.1578
rfingers 7.12502
rthumb 39.9395 -76.4021
lclavicle -3.97569e-016 -2.10712e-014
lhumerus -58.8436 -11.0226 88.1251
lradius 110.277
lwrist 4.9641
lhand -6.58456 -23.7142
lfingers 7.12502
lthumb 19.2703 5.35102
rfemur 12.4426 9.42093 18.7927
rtibia -2.46493e-014
rfoot -18.4906 -17.3678
rtoes -12.614
lfemur -2.75951 -0.999395 -10.614
ltibia 26.0353
lfoot -18.7153 8.72481
ltoes -56.222
673
root -0.693268 18.5642 4.5301 -6.93126 -1.05008 -3.20017
lowerback 21.2988 -0.236855 1.78747
upperback 4.49741 0.25161 2.10828
thorax -6.99811 0.101506 1.19352
lowerneck 4.91973 -6.44541 -7.43729
upperneck 44.4131 -9.7883 1.5666
head 15.519 -5.27783 0.972271
rclavicle 6.11263e-015 -4.77083e-015
rhumerus -62.3854 4.19302 -76.4418
rradius 116.707
rwrist 3.94105
rhand 15.2251 -51.1399
rfingers 7.12502
rthumb 40.0634 -76.3468
lclavicle 6.11263e-015 -4.77083e-015
lhumerus -58.7759 -11.2844 88.1221
lradius 110.263
lwrist 4.97283
lhand -6.65262 -23.6178
lfingers 7.12502
lthumb 19.2049 5.45395
rfemur 12.3769 9.42156 18.8031
rtibia 1.82882e-014
rfoot -18.4425 -17.4015
rtoes -12.6985
lfemur -2.81388 -1.11233 -10.6169
ltibia 26.0288
lfoot -18.7307 8.85019
ltoes -56.2595
674
root -0.702133 18.5661 4.51651 -6.86585 -0.8669 -3.2233
lowerback 21.478 -0.311876 1.75719
upperback 4.43826 0.157505 2.13749
thorax -7.15633 0.0565128 1.26993
lowerneck 4.89942 -6.40099 -7.45063
upperneck 44.4603 -9.73052 1.58505
head 15.5477 -5.2532 0.987562
rclavicle 7.95139e-016 -1.43125e-014
rhumerus -62.3892 4.26473 -76.4444
rradius 116.692
rwrist 4.03737
rhand 15.4395 -51.6553
rfingers 7.12502
rthumb 40.2652 -76.8008
lclavicle 7.95139e-016 -1.43125e-014
lhumerus -58.8179 -11.2756 88.2151
lradius 110.245
lwrist 4.95668
lhand -6.67703 -23.5957
lfingers 7.12502
lthumb 19.1814 5.47844
rfemur 12.2875 9.23192 18.8235
rtibia 2.62396e-014
rfoot -18.3929 -17.4466
rtoes -12.7912
lfemur -2.97242 -1.17353 -10.5551
ltibia 26.0192
lfoot -18.6172 8.74568
ltoes -56.2561
675
root -0.704982 18.5679 4.5164 -6.79534 -0.900867 -3.23228
lowerback 21.4648 -0.339392 1.70937
upperback 4.41859 0.116191 2.19991
thorax -7.17075 0.0378385 1.37629
lowerneck 4.90607 -6.30977 -7.61038
upperneck 44.4664 -9.59786 1.62167
head 15.5557 -5.21838 1.04609
rclavicle 1.2275e-014 -1.19271e-014
rhumerus -62.4179 4.50124 -76.3921
rradius 116.726
rwrist 4.15206
rhand 15.6337 -52.2236
rfingers 7.12502
rthumb 40.4478 -77.3129
lclavicle 1.2275e-014 -1.19271e-014
lhumerus -58.8828 -11.11 88.3406
lradius 110.201
lwrist 4.90703
lhand -6.64085 -23.7381
lfingers 7.12502
lthumb 19.2162 5.33253
rfemur 12.201 9.26183 18.836
rtibia 2.46493e-014
rfoot -18.3604 -17.4728
rtoes -12.8328
lfemur -3.02801 -1.14449 -10.5294
ltibia 26.0018
lfoot -18.5998 8.75533
ltoes -56.2492
676
root -0.709814 18.5687 4.51363 -6.72558 -0.895685 -3.25996
lowerback 21.4806 -0.358676 1.67561
upperback 4.39625 0.0882777 2.2429
thorax -7.20326 0.0252657 1.45025
lowerneck 4.88412 -6.26141 -7.63194
upperneck 44.4663 -9.52201 1.61678
head 15.5559 -5.18972 1.05563
rclavicle 1.50579e-014 -2.70347e-014
rhumerus -62.46 4.67615 -76.3789
rradius 116.75
rwrist 4.38254
rhand 15.6369 -52.2207
rfingers 7.12502
rthumb 40.4508 -77.3092
lclavicle 1.50579e-014 -2.70347e-014
lhumerus -58.9248 -11.0385 88.4268
lradius 110.176
lwrist 4.83798
lhand -6.5603 -23.7908
lfingers 7.12502
lthumb 19.2937 5.27207
rfemur 12.116 9.24973 18.8701
rtibia 4.13472e-014
rfoot -18.3166 -17.4721
rtoes -12.7438
lfemur -3.1009 -1.1236 -10.4808
ltibia 25.9818
lfoot -18.5598 8.76509
ltoes -56.3183
